<svg width="25" height="25" viewBox="0 0 25 25" fill="none" xmlns="http://www.w3.org/2000/svg">
<path d="M6.28055 3.24979L3.28055 6.24979C3.21087 6.31948 3.12815 6.37475 3.0371 6.41246C2.94606 6.45017 2.84847 6.46958 2.74993 6.46958C2.65138 6.46958 2.5538 6.45017 2.46276 6.41246C2.37171 6.37475 2.28899 6.31948 2.2193 6.24979C2.07857 6.10906 1.99951 5.91819 1.99951 5.71917C1.99951 5.52014 2.07857 5.32927 2.2193 5.18854L5.2193 2.18854C5.28899 2.11886 5.37171 2.06358 5.46276 2.02587C5.5538 1.98816 5.65138 1.96875 5.74993 1.96875C5.84847 1.96875 5.94606 1.98816 6.0371 2.02587C6.12815 2.06358 6.21087 2.11886 6.28055 2.18854C6.35024 2.25822 6.40551 2.34095 6.44322 2.43199C6.48094 2.52304 6.50035 2.62062 6.50035 2.71917C6.50035 2.81771 6.48094 2.91529 6.44322 3.00634C6.40551 3.09738 6.35024 3.18011 6.28055 3.24979ZM22.7806 5.18854L19.7806 2.18854C19.6398 2.04781 19.449 1.96875 19.2499 1.96875C19.0509 1.96875 18.86 2.04781 18.7193 2.18854C18.5786 2.32927 18.4995 2.52014 18.4995 2.71917C18.4995 2.91819 18.5786 3.10906 18.7193 3.24979L21.7193 6.24979C21.789 6.31948 21.8717 6.37475 21.9628 6.41246C22.0538 6.45017 22.1514 6.46958 22.2499 6.46958C22.3485 6.46958 22.4461 6.45017 22.5371 6.41246C22.6281 6.37475 22.7109 6.31948 22.7806 6.24979C22.8502 6.18011 22.9055 6.09738 22.9432 6.00634C22.9809 5.91529 23.0003 5.81771 23.0003 5.71917C23.0003 5.62062 22.9809 5.52304 22.9432 5.43199C22.9055 5.34095 22.8502 5.25822 22.7806 5.18854ZM21.4999 12.4692C21.4999 14.2492 20.9721 15.9893 19.9832 17.4693C18.9942 18.9493 17.5886 20.1029 15.9441 20.7841C14.2995 21.4653 12.4899 21.6435 10.7441 21.2962C8.99829 20.949 7.39464 20.0918 6.13597 18.8331C4.8773 17.5745 4.02013 15.9708 3.67286 14.225C3.32559 12.4792 3.50382 10.6696 4.18501 9.02502C4.8662 7.38048 6.01975 5.97487 7.4998 4.98594C8.97984 3.99701 10.7199 3.46917 12.4999 3.46917C14.886 3.4719 17.1736 4.42098 18.8609 6.10822C20.5481 7.79546 21.4972 10.0831 21.4999 12.4692ZM18.4999 12.4692C18.4999 12.2703 18.4209 12.0795 18.2803 11.9388C18.1396 11.7982 17.9488 11.7192 17.7499 11.7192H13.2499V7.21917C13.2499 7.02026 13.1709 6.82949 13.0303 6.68884C12.8896 6.54819 12.6988 6.46917 12.4999 6.46917C12.301 6.46917 12.1103 6.54819 11.9696 6.68884C11.8289 6.82949 11.7499 7.02026 11.7499 7.21917V12.4692C11.7499 12.6681 11.8289 12.8588 11.9696 12.9995C12.1103 13.1402 12.301 13.2192 12.4999 13.2192H17.7499C17.9488 13.2192 18.1396 13.1402 18.2803 12.9995C18.4209 12.8588 18.4999 12.6681 18.4999 12.4692Z" fill="#C1A50C"/>
</svg>
