<svg width="25" height="25" viewBox="0 0 25 25" fill="none" xmlns="http://www.w3.org/2000/svg">
<path d="M12.5 1.96924C10.3127 1.97172 8.21575 2.84171 6.66911 4.38835C5.12247 5.93499 4.25248 8.03196 4.25 10.2192C4.25 17.2786 11.75 22.6102 12.0697 22.8333C12.1958 22.9216 12.346 22.969 12.5 22.969C12.654 22.969 12.8042 22.9216 12.9303 22.8333C13.25 22.6102 20.75 17.2786 20.75 10.2192C20.7475 8.03196 19.8775 5.93499 18.3309 4.38835C16.7843 2.84171 14.6873 1.97172 12.5 1.96924ZM12.5 7.21924C13.0933 7.21924 13.6734 7.39519 14.1667 7.72483C14.6601 8.05447 15.0446 8.52301 15.2716 9.07119C15.4987 9.61937 15.5581 10.2226 15.4424 10.8045C15.3266 11.3865 15.0409 11.921 14.6213 12.3406C14.2018 12.7601 13.6672 13.0458 13.0853 13.1616C12.5033 13.2774 11.9001 13.2179 11.3519 12.9909C10.8038 12.7638 10.3352 12.3793 10.0056 11.8859C9.67595 11.3926 9.5 10.8126 9.5 10.2192C9.5 9.42359 9.81607 8.66053 10.3787 8.09792C10.9413 7.53531 11.7044 7.21924 12.5 7.21924Z" fill="#C1A50C"/>
</svg>
