<svg width="423" height="37" viewBox="0 0 423 37" fill="none" xmlns="http://www.w3.org/2000/svg">
<path d="M0.703125 36.52H36.7031V0.52H0.703125V36.52ZM56.9472 8.44L65.6952 30.976C66.0312 31.84 66.4032 32.44 66.8112 32.776C67.2432 33.088 67.6272 33.256 67.9632 33.28V34C67.2432 33.952 66.3912 33.928 65.4072 33.928C64.4472 33.904 63.4752 33.892 62.4912 33.892C61.3872 33.892 60.3432 33.904 59.3592 33.928C58.3752 33.928 57.5952 33.952 57.0192 34V33.28C58.2432 33.232 59.0112 33.028 59.3232 32.668C59.6592 32.284 59.5872 31.48 59.1072 30.256L52.9872 13.516L53.6352 12.58L48.1632 26.836C47.6352 28.156 47.3112 29.236 47.1912 30.076C47.0952 30.916 47.1552 31.564 47.3712 32.02C47.6112 32.476 47.9832 32.8 48.4872 32.992C49.0152 33.16 49.6392 33.256 50.3592 33.28V34C49.5672 33.952 48.8112 33.928 48.0912 33.928C47.3712 33.904 46.6392 33.892 45.8952 33.892C45.3672 33.892 44.8632 33.904 44.3832 33.928C43.9272 33.928 43.5192 33.952 43.1592 34V33.28C43.6632 33.184 44.1792 32.86 44.7072 32.308C45.2352 31.756 45.7512 30.82 46.2552 29.5L54.4632 8.44C54.8472 8.464 55.2552 8.476 55.6872 8.476C56.1432 8.476 56.5632 8.464 56.9472 8.44ZM59.4672 23.632V24.352H48.7392L49.0992 23.632H59.4672ZM88.6773 8.512V9.232C87.8613 9.256 87.2373 9.352 86.8053 9.52C86.3973 9.664 86.1213 9.952 85.9773 10.384C85.8333 10.792 85.7613 11.44 85.7613 12.328V30.616C85.7613 31.36 85.8093 31.912 85.9053 32.272C86.0253 32.632 86.2413 32.872 86.5533 32.992C86.8893 33.112 87.3813 33.172 88.0293 33.172H89.7933C90.6093 33.172 91.3773 32.98 92.0973 32.596C92.8173 32.212 93.4653 31.672 94.0413 30.976C94.6173 30.256 95.0973 29.404 95.4813 28.42C95.8653 27.436 96.1533 26.344 96.3453 25.144H97.1733C97.1013 25.96 97.0653 27.016 97.0653 28.312C97.0653 28.864 97.0773 29.668 97.1013 30.724C97.1253 31.78 97.1973 32.872 97.3173 34C96.0933 33.952 94.7133 33.928 93.1773 33.928C91.6413 33.904 90.2733 33.892 89.0733 33.892C88.4733 33.892 87.7053 33.892 86.7693 33.892C85.8333 33.892 84.8253 33.904 83.7453 33.928C82.6653 33.928 81.5733 33.94 80.4693 33.964C79.3653 33.964 78.3213 33.976 77.3373 34V33.28C78.1053 33.232 78.6813 33.136 79.0653 32.992C79.4493 32.848 79.7013 32.56 79.8213 32.128C79.9653 31.696 80.0373 31.048 80.0373 30.184V12.328C80.0373 11.44 79.9653 10.792 79.8213 10.384C79.7013 9.952 79.4373 9.664 79.0293 9.52C78.6453 9.352 78.0813 9.256 77.3373 9.232V8.512C77.9373 8.536 78.7413 8.56 79.7493 8.584C80.7813 8.608 81.8733 8.62 83.0253 8.62C84.0813 8.62 85.1133 8.608 86.1213 8.584C87.1533 8.56 88.0053 8.536 88.6773 8.512ZM108.273 14.884C110.025 14.884 111.561 15.208 112.881 15.856C114.201 16.504 115.233 17.548 115.977 18.988C116.721 20.428 117.093 22.336 117.093 24.712C117.093 27.088 116.721 28.996 115.977 30.436C115.233 31.852 114.201 32.884 112.881 33.532C111.561 34.18 110.025 34.504 108.273 34.504C106.569 34.504 105.045 34.18 103.701 33.532C102.381 32.884 101.337 31.852 100.569 30.436C99.8251 28.996 99.4531 27.088 99.4531 24.712C99.4531 22.336 99.8251 20.428 100.569 18.988C101.337 17.548 102.381 16.504 103.701 15.856C105.045 15.208 106.569 14.884 108.273 14.884ZM108.273 15.604C107.313 15.604 106.509 16.324 105.861 17.764C105.213 19.18 104.889 21.496 104.889 24.712C104.889 27.928 105.213 30.244 105.861 31.66C106.509 33.076 107.313 33.784 108.273 33.784C109.257 33.784 110.061 33.076 110.685 31.66C111.333 30.244 111.657 27.928 111.657 24.712C111.657 21.496 111.333 19.18 110.685 17.764C110.061 16.324 109.257 15.604 108.273 15.604ZM136.272 15.388V16.108C135.816 16.228 135.384 16.516 134.976 16.972C134.568 17.404 134.172 18.148 133.788 19.204L128.532 34.072C128.148 34.048 127.752 34.036 127.344 34.036C126.96 34.036 126.576 34.048 126.192 34.072L119.784 18.16C119.4 17.224 119.016 16.66 118.632 16.468C118.272 16.252 117.96 16.144 117.696 16.144V15.388C118.464 15.436 119.256 15.484 120.072 15.532C120.912 15.556 121.824 15.568 122.808 15.568C123.552 15.568 124.332 15.556 125.148 15.532C125.988 15.484 126.768 15.436 127.488 15.388V16.144C126.984 16.144 126.528 16.168 126.12 16.216C125.736 16.264 125.472 16.42 125.328 16.684C125.184 16.948 125.208 17.416 125.4 18.088L129.612 29.248L129.252 29.752L132.096 21.868C132.552 20.572 132.744 19.516 132.672 18.7C132.6 17.86 132.336 17.236 131.88 16.828C131.424 16.396 130.812 16.156 130.044 16.108V15.388C130.404 15.412 130.788 15.436 131.196 15.46C131.628 15.46 132.036 15.472 132.42 15.496C132.828 15.496 133.188 15.496 133.5 15.496C133.98 15.496 134.484 15.484 135.012 15.46C135.54 15.436 135.96 15.412 136.272 15.388ZM145.925 14.884C148.037 14.884 149.693 15.508 150.893 16.756C152.093 18.004 152.693 20.044 152.693 22.876H140.849L140.777 22.192H148.157C148.181 21.016 148.109 19.936 147.941 18.952C147.773 17.944 147.509 17.14 147.149 16.54C146.789 15.94 146.309 15.64 145.709 15.64C144.869 15.64 144.149 16.168 143.549 17.224C142.973 18.28 142.625 20.032 142.505 22.48L142.613 22.696C142.589 22.984 142.565 23.284 142.541 23.596C142.541 23.908 142.541 24.232 142.541 24.568C142.541 26.224 142.769 27.568 143.225 28.6C143.705 29.632 144.305 30.388 145.025 30.868C145.745 31.324 146.477 31.552 147.221 31.552C147.725 31.552 148.241 31.48 148.769 31.336C149.321 31.168 149.873 30.88 150.425 30.472C150.977 30.04 151.493 29.44 151.973 28.672L152.621 28.888C152.333 29.8 151.877 30.688 151.253 31.552C150.629 32.416 149.837 33.124 148.877 33.676C147.917 34.228 146.765 34.504 145.421 34.504C143.789 34.504 142.349 34.156 141.101 33.46C139.853 32.764 138.869 31.708 138.149 30.292C137.453 28.876 137.105 27.076 137.105 24.892C137.105 22.66 137.477 20.8 138.221 19.312C138.989 17.824 140.033 16.72 141.353 16C142.697 15.256 144.221 14.884 145.925 14.884ZM187.264 8.512V9.232C186.496 9.328 185.92 9.532 185.536 9.844C185.152 10.132 184.888 10.6 184.744 11.248C184.624 11.896 184.564 12.808 184.564 13.984V34.072C184.276 34.048 183.976 34.036 183.664 34.036C183.376 34.036 183.064 34.048 182.728 34.072L167.104 14.272V28.096C167.104 29.416 167.176 30.436 167.32 31.156C167.464 31.852 167.776 32.356 168.256 32.668C168.76 32.956 169.54 33.16 170.596 33.28V34C170.14 33.952 169.54 33.928 168.796 33.928C168.052 33.904 167.356 33.892 166.708 33.892C166.156 33.892 165.592 33.904 165.016 33.928C164.44 33.928 163.96 33.952 163.576 34V33.28C164.344 33.16 164.92 32.956 165.304 32.668C165.688 32.38 165.94 31.912 166.06 31.264C166.204 30.592 166.276 29.68 166.276 28.528V12.328C166.276 11.44 166.204 10.792 166.06 10.384C165.94 9.952 165.676 9.664 165.268 9.52C164.884 9.352 164.32 9.256 163.576 9.232V8.512C163.96 8.536 164.44 8.56 165.016 8.584C165.592 8.608 166.156 8.62 166.708 8.62C167.284 8.62 167.836 8.608 168.364 8.584C168.892 8.56 169.372 8.536 169.804 8.512L183.736 25.684V14.416C183.736 13.096 183.664 12.088 183.52 11.392C183.376 10.672 183.052 10.156 182.548 9.844C182.068 9.532 181.3 9.328 180.244 9.232V8.512C180.7 8.536 181.3 8.56 182.044 8.584C182.788 8.608 183.484 8.62 184.132 8.62C184.708 8.62 185.272 8.608 185.824 8.584C186.4 8.56 186.88 8.536 187.264 8.512ZM197.746 14.884C199.498 14.884 201.034 15.208 202.354 15.856C203.674 16.504 204.706 17.548 205.45 18.988C206.194 20.428 206.566 22.336 206.566 24.712C206.566 27.088 206.194 28.996 205.45 30.436C204.706 31.852 203.674 32.884 202.354 33.532C201.034 34.18 199.498 34.504 197.746 34.504C196.042 34.504 194.518 34.18 193.174 33.532C191.854 32.884 190.81 31.852 190.042 30.436C189.298 28.996 188.926 27.088 188.926 24.712C188.926 22.336 189.298 20.428 190.042 18.988C190.81 17.548 191.854 16.504 193.174 15.856C194.518 15.208 196.042 14.884 197.746 14.884ZM197.746 15.604C196.786 15.604 195.982 16.324 195.334 17.764C194.686 19.18 194.362 21.496 194.362 24.712C194.362 27.928 194.686 30.244 195.334 31.66C195.982 33.076 196.786 33.784 197.746 33.784C198.73 33.784 199.534 33.076 200.158 31.66C200.806 30.244 201.13 27.928 201.13 24.712C201.13 21.496 200.806 19.18 200.158 17.764C199.534 16.324 198.73 15.604 197.746 15.604ZM216.121 9.484V15.388H220.369V16.108H216.121V30.652C216.121 31.372 216.253 31.888 216.517 32.2C216.781 32.488 217.177 32.632 217.705 32.632C218.137 32.632 218.569 32.476 219.001 32.164C219.433 31.828 219.817 31.264 220.153 30.472L220.765 30.796C220.381 31.876 219.793 32.764 219.001 33.46C218.233 34.156 217.177 34.504 215.833 34.504C215.041 34.504 214.345 34.396 213.745 34.18C213.145 33.988 212.641 33.688 212.233 33.28C211.705 32.752 211.357 32.104 211.189 31.336C211.021 30.544 210.937 29.524 210.937 28.276V16.108H207.913V15.388H210.937V10.636C211.945 10.636 212.869 10.552 213.709 10.384C214.573 10.192 215.377 9.892 216.121 9.484ZM230.617 14.884C232.729 14.884 234.385 15.508 235.585 16.756C236.785 18.004 237.385 20.044 237.385 22.876H225.541L225.469 22.192H232.849C232.873 21.016 232.801 19.936 232.633 18.952C232.465 17.944 232.201 17.14 231.841 16.54C231.481 15.94 231.001 15.64 230.401 15.64C229.561 15.64 228.841 16.168 228.241 17.224C227.665 18.28 227.317 20.032 227.197 22.48L227.305 22.696C227.281 22.984 227.257 23.284 227.233 23.596C227.233 23.908 227.233 24.232 227.233 24.568C227.233 26.224 227.461 27.568 227.917 28.6C228.397 29.632 228.997 30.388 229.717 30.868C230.437 31.324 231.169 31.552 231.913 31.552C232.417 31.552 232.933 31.48 233.461 31.336C234.013 31.168 234.565 30.88 235.117 30.472C235.669 30.04 236.185 29.44 236.665 28.672L237.313 28.888C237.025 29.8 236.569 30.688 235.945 31.552C235.321 32.416 234.529 33.124 233.569 33.676C232.609 34.228 231.457 34.504 230.113 34.504C228.481 34.504 227.041 34.156 225.793 33.46C224.545 32.764 223.561 31.708 222.841 30.292C222.145 28.876 221.797 27.076 221.797 24.892C221.797 22.66 222.169 20.8 222.913 19.312C223.681 17.824 224.725 16.72 226.045 16C227.389 15.256 228.913 14.884 230.617 14.884ZM257.376 5.848C258.216 5.848 258.948 5.956 259.572 6.172C260.196 6.388 260.748 6.676 261.228 7.036C261.564 7.3 261.852 7.672 262.092 8.152C262.332 8.608 262.452 9.136 262.452 9.736C262.452 10.384 262.212 10.96 261.732 11.464C261.276 11.968 260.664 12.22 259.896 12.22C259.104 12.22 258.444 11.992 257.916 11.536C257.412 11.08 257.16 10.456 257.16 9.664C257.16 9.04 257.34 8.488 257.7 8.008C258.06 7.528 258.588 7.192 259.284 7C259.212 6.856 259.068 6.736 258.852 6.64C258.636 6.544 258.348 6.496 257.988 6.496C257.508 6.496 257.112 6.58 256.8 6.748C256.488 6.916 256.236 7.144 256.044 7.432C255.78 7.792 255.6 8.32 255.504 9.016C255.408 9.688 255.36 10.732 255.36 12.148V15.424H259.212V16.144H255.36V30.292C255.36 31.468 255.66 32.26 256.26 32.668C256.86 33.052 257.688 33.244 258.744 33.244V34C258.12 33.976 257.244 33.952 256.116 33.928C254.988 33.88 253.8 33.856 252.552 33.856C251.64 33.856 250.74 33.88 249.852 33.928C248.988 33.952 248.328 33.976 247.872 34V33.244C248.712 33.244 249.3 33.064 249.636 32.704C249.996 32.344 250.176 31.66 250.176 30.652V16.144H247.728V15.424H250.176C250.176 14.008 250.248 12.832 250.392 11.896C250.536 10.936 250.776 10.12 251.112 9.448C251.448 8.776 251.892 8.176 252.444 7.648C252.972 7.144 253.668 6.724 254.532 6.388C255.42 6.028 256.368 5.848 257.376 5.848ZM272.912 14.884C273.68 14.884 274.304 15.052 274.784 15.388C275.264 15.7 275.612 16.108 275.828 16.612C276.068 17.116 276.188 17.644 276.188 18.196C276.188 19.084 275.924 19.816 275.396 20.392C274.892 20.944 274.22 21.22 273.38 21.22C272.54 21.22 271.88 21.016 271.4 20.608C270.944 20.176 270.716 19.612 270.716 18.916C270.716 18.244 270.86 17.692 271.148 17.26C271.46 16.804 271.844 16.42 272.3 16.108C271.964 16.012 271.628 16.024 271.292 16.144C270.836 16.216 270.404 16.408 269.996 16.72C269.588 17.008 269.24 17.38 268.952 17.836C268.664 18.268 268.436 18.748 268.268 19.276C268.1 19.78 268.016 20.272 268.016 20.752V30.292C268.016 31.444 268.292 32.224 268.844 32.632C269.42 33.04 270.272 33.244 271.4 33.244V34C270.848 33.976 270.044 33.952 268.988 33.928C267.932 33.88 266.828 33.856 265.676 33.856C264.716 33.856 263.744 33.88 262.76 33.928C261.776 33.952 261.032 33.976 260.528 34V33.244C261.368 33.244 261.956 33.064 262.292 32.704C262.652 32.344 262.832 31.66 262.832 30.652V19.312C262.832 18.232 262.664 17.44 262.328 16.936C262.016 16.408 261.416 16.144 260.528 16.144V15.388C261.296 15.46 262.04 15.496 262.76 15.496C263.768 15.496 264.704 15.46 265.568 15.388C266.456 15.292 267.272 15.16 268.016 14.992V18.34C268.304 17.692 268.688 17.104 269.168 16.576C269.648 16.048 270.2 15.64 270.824 15.352C271.448 15.04 272.144 14.884 272.912 14.884ZM286.129 14.884C287.881 14.884 289.417 15.208 290.737 15.856C292.057 16.504 293.089 17.548 293.833 18.988C294.577 20.428 294.949 22.336 294.949 24.712C294.949 27.088 294.577 28.996 293.833 30.436C293.089 31.852 292.057 32.884 290.737 33.532C289.417 34.18 287.881 34.504 286.129 34.504C284.425 34.504 282.901 34.18 281.557 33.532C280.237 32.884 279.193 31.852 278.425 30.436C277.681 28.996 277.309 27.088 277.309 24.712C277.309 22.336 277.681 20.428 278.425 18.988C279.193 17.548 280.237 16.504 281.557 15.856C282.901 15.208 284.425 14.884 286.129 14.884ZM286.129 15.604C285.169 15.604 284.365 16.324 283.717 17.764C283.069 19.18 282.745 21.496 282.745 24.712C282.745 27.928 283.069 30.244 283.717 31.66C284.365 33.076 285.169 33.784 286.129 33.784C287.113 33.784 287.917 33.076 288.541 31.66C289.189 30.244 289.513 27.928 289.513 24.712C289.513 21.496 289.189 19.18 288.541 17.764C287.917 16.324 287.113 15.604 286.129 15.604ZM310.264 14.884C311.272 14.884 312.088 15.016 312.712 15.28C313.336 15.52 313.84 15.856 314.224 16.288C314.608 16.744 314.884 17.344 315.052 18.088C315.22 18.808 315.304 19.768 315.304 20.968V30.652C315.304 31.66 315.46 32.344 315.772 32.704C316.084 33.064 316.624 33.244 317.392 33.244V34C316.96 33.976 316.3 33.952 315.412 33.928C314.548 33.88 313.696 33.856 312.856 33.856C311.992 33.856 311.14 33.88 310.3 33.928C309.46 33.952 308.824 33.976 308.392 34V33.244C309.04 33.244 309.484 33.064 309.724 32.704C309.988 32.344 310.12 31.66 310.12 30.652V19.456C310.12 18.856 310.072 18.34 309.976 17.908C309.88 17.452 309.688 17.104 309.4 16.864C309.136 16.6 308.728 16.468 308.176 16.468C307.552 16.468 306.976 16.648 306.448 17.008C305.92 17.368 305.488 17.872 305.152 18.52C304.84 19.144 304.684 19.852 304.684 20.644V30.652C304.684 31.66 304.816 32.344 305.08 32.704C305.344 33.064 305.788 33.244 306.412 33.244V34C306.028 33.976 305.428 33.952 304.612 33.928C303.82 33.88 303.004 33.856 302.164 33.856C301.252 33.856 300.316 33.88 299.356 33.928C298.396 33.952 297.676 33.976 297.196 34V33.244C298.036 33.244 298.624 33.064 298.96 32.704C299.32 32.344 299.5 31.66 299.5 30.652V19.312C299.5 18.232 299.332 17.44 298.996 16.936C298.684 16.408 298.084 16.144 297.196 16.144V15.388C297.964 15.46 298.708 15.496 299.428 15.496C300.436 15.496 301.372 15.46 302.236 15.388C303.124 15.292 303.94 15.16 304.684 14.992V18.232C305.26 17.032 306.04 16.18 307.024 15.676C308.008 15.148 309.088 14.884 310.264 14.884ZM321.1 14.884C322.108 14.884 322.924 15.016 323.548 15.28C324.172 15.52 324.676 15.856 325.06 16.288C325.444 16.744 325.72 17.344 325.888 18.088C326.056 18.808 326.14 19.768 326.14 20.968V30.652C326.14 31.66 326.308 32.344 326.644 32.704C327.004 33.064 327.604 33.244 328.444 33.244V34C327.988 33.976 327.304 33.952 326.392 33.928C325.48 33.88 324.58 33.856 323.692 33.856C322.828 33.856 321.976 33.88 321.136 33.928C320.296 33.952 319.66 33.976 319.228 34V33.244C319.876 33.244 320.32 33.064 320.56 32.704C320.824 32.344 320.956 31.66 320.956 30.652V19.456C320.956 18.856 320.896 18.34 320.776 17.908C320.68 17.452 320.476 17.104 320.164 16.864C319.876 16.6 319.42 16.468 318.796 16.468C318.172 16.468 317.596 16.66 317.068 17.044C316.54 17.428 316.108 17.944 315.772 18.592C315.46 19.24 315.292 19.96 315.268 20.752L315.088 18.556C315.736 17.116 316.588 16.144 317.644 15.64C318.724 15.136 319.876 14.884 321.1 14.884ZM361.48 8.512V9.232C360.712 9.328 360.124 9.532 359.716 9.844C359.332 10.132 359.08 10.6 358.96 11.248C358.84 11.896 358.78 12.808 358.78 13.984V23.524C358.78 25.084 358.672 26.512 358.456 27.808C358.24 29.104 357.856 30.22 357.304 31.156C356.68 32.188 355.768 33.004 354.568 33.604C353.368 34.204 351.844 34.504 349.996 34.504C348.892 34.504 347.764 34.372 346.612 34.108C345.46 33.868 344.428 33.4 343.516 32.704C342.748 32.056 342.16 31.324 341.752 30.508C341.344 29.692 341.068 28.732 340.924 27.628C340.78 26.5 340.708 25.168 340.708 23.632V12.328C340.708 11.44 340.636 10.792 340.492 10.384C340.372 9.952 340.12 9.664 339.736 9.52C339.352 9.352 338.776 9.256 338.008 9.232V8.512C338.608 8.536 339.412 8.56 340.42 8.584C341.452 8.608 342.52 8.62 343.624 8.62C344.728 8.62 345.784 8.608 346.792 8.584C347.824 8.56 348.676 8.536 349.348 8.512V9.232C348.532 9.256 347.908 9.352 347.476 9.52C347.068 9.664 346.792 9.952 346.648 10.384C346.504 10.792 346.432 11.44 346.432 12.328V25.9C346.432 27.1 346.504 28.168 346.648 29.104C346.816 30.016 347.08 30.784 347.44 31.408C347.824 32.008 348.34 32.464 348.988 32.776C349.636 33.088 350.44 33.244 351.4 33.244C353.08 33.244 354.388 32.848 355.324 32.056C356.284 31.264 356.956 30.172 357.34 28.78C357.748 27.364 357.952 25.744 357.952 23.92V14.416C357.952 13.096 357.868 12.088 357.7 11.392C357.532 10.672 357.196 10.156 356.692 9.844C356.212 9.532 355.468 9.328 354.46 9.232V8.512C354.916 8.536 355.516 8.56 356.26 8.584C357.004 8.608 357.7 8.62 358.348 8.62C358.924 8.62 359.488 8.608 360.04 8.584C360.616 8.56 361.096 8.536 361.48 8.512ZM369.258 14.884C370.266 14.884 371.142 15.016 371.886 15.28C372.654 15.52 373.206 15.76 373.542 16C374.358 16.552 374.862 16.192 375.054 14.92H375.81C375.762 15.592 375.726 16.42 375.702 17.404C375.678 18.364 375.666 19.648 375.666 21.256H374.91C374.79 20.368 374.562 19.492 374.226 18.628C373.89 17.764 373.398 17.056 372.75 16.504C372.126 15.952 371.31 15.676 370.302 15.676C369.606 15.676 369.018 15.88 368.538 16.288C368.058 16.672 367.818 17.236 367.818 17.98C367.818 18.7 368.034 19.336 368.466 19.888C368.898 20.416 369.45 20.932 370.122 21.436C370.818 21.916 371.538 22.432 372.282 22.984C373.074 23.584 373.794 24.184 374.442 24.784C375.09 25.36 375.606 25.996 375.99 26.692C376.374 27.388 376.566 28.216 376.566 29.176C376.566 30.256 376.254 31.204 375.63 32.02C375.006 32.812 374.178 33.424 373.146 33.856C372.138 34.288 371.01 34.504 369.762 34.504C369.042 34.504 368.394 34.432 367.818 34.288C367.266 34.144 366.786 33.964 366.378 33.748C366.066 33.604 365.766 33.472 365.478 33.352C365.214 33.208 364.962 33.088 364.722 32.992C364.482 32.92 364.266 33.004 364.074 33.244C363.906 33.484 363.774 33.82 363.678 34.252H362.922C362.97 33.484 363.006 32.548 363.03 31.444C363.054 30.34 363.066 28.876 363.066 27.052H363.822C363.966 28.348 364.23 29.5 364.614 30.508C364.998 31.492 365.514 32.272 366.162 32.848C366.834 33.4 367.674 33.676 368.682 33.676C369.09 33.676 369.486 33.592 369.87 33.424C370.254 33.256 370.566 32.98 370.806 32.596C371.07 32.212 371.202 31.72 371.202 31.12C371.202 30.064 370.854 29.188 370.158 28.492C369.486 27.796 368.622 27.04 367.566 26.224C366.798 25.6 366.066 24.988 365.37 24.388C364.698 23.764 364.146 23.092 363.714 22.372C363.282 21.628 363.066 20.788 363.066 19.852C363.066 18.772 363.354 17.86 363.93 17.116C364.506 16.372 365.262 15.82 366.198 15.46C367.158 15.076 368.178 14.884 369.258 14.884ZM386.297 36.52H422.297V0.52H386.297V36.52Z" fill="#474747"/>
</svg>
