<svg width="61" height="68" viewBox="0 0 61 68" fill="none" xmlns="http://www.w3.org/2000/svg">
<path d="M0 0H21.816L26.0521 0.64151L29.441 1.92453L31.559 3.20755L33.6771 5.13208L34.9479 6.84277L36.2188 9.62264L36.4306 10.6918V15.3962L35.7951 18.1761L34.5243 20.3145L33.0417 22.239L30.5 24.1635L27.5347 25.4465L26.0521 25.6604L25.4167 25.0189V24.3774L27.5347 23.0943L28.3819 22.239H28.8056L29.2292 21.3837L30.5 19.2453L31.1354 17.3208L31.559 14.9686V11.3333L30.7118 7.69811L29.441 5.34591L27.7465 3.63522L26.0521 2.56604L24.5694 1.92453L20.5451 1.06918H12.2847L10.8021 1.71069L9.74305 2.77987L9.31944 4.06289L9.10764 14.7547H16.309L18.2153 17.3208L20.3333 20.1006L23.2986 23.9497L27.5347 29.5094L29.0174 31.434L31.1354 34.2138L34.1007 38.0629V40.8428L33.6771 43.195L33.2535 44.478L32.1944 43.4088L29.2292 39.5598L26.4757 35.9245L23.934 32.717L21.6042 29.7233L19.4861 26.9434L16.5208 23.0943L15.6736 22.0252L15.4618 24.5912H14.6146L14.4028 20.5283L12.4965 18.3899L10.1667 16.6792L8.89583 16.0377V25.8742H17.1562L17.5799 26.7296H8.89583L9.10764 46.8302L9.74305 50.2516L10.1667 51.3208L11.2257 51.7484L13.3437 52.1761V53.2453H0V52.3899L1.90625 52.1761L3.60069 51.1069L4.44792 48.7547V4.49057L3.8125 2.56604L2.96528 1.49686L1.27083 0.855346L0 0.64151V0Z" fill="#262626"/>
<path d="M42.7847 14.7547H61V15.61L58.4583 15.8239L55.9167 17.1069L55.2812 17.3207L54.8576 18.1761L53.7986 19.8868L52.9514 22.239L52.5278 25.2327L52.316 68H51.2569L49.5625 65.8616L47.2326 62.8679L45.1146 60.088L42.7847 57.0943L39.8194 53.2453L37.4896 50.2516L37.2778 49.3962H37.7014L38.125 48.5409L39.3958 46.8302L39.8194 46.1887L40.4549 46.4025L42.5729 49.1824L45.3264 52.8176L48.2917 56.6667L50.4097 59.4465L51.0451 60.3019V60.7296H51.4688L51.2569 24.805L50.6215 21.3836L49.7743 19.4591L48.5035 17.5346L47.0208 16.4654L45.1146 15.8239L42.7847 15.61V14.7547Z" fill="#262626"/>
<path d="M26.6875 26.3018L28.5938 26.5157L32.1944 27.7987L34.7361 29.2956L37.2778 31.6478L38.9722 34L39.8194 36.1383L40.0312 37.2075V42.1257L39.184 44.9056L37.9132 47.044L36.0069 49.1824L33.0417 51.1069L29.2292 52.6037L27.1111 53.0314H16.9444V52.3899L23.7222 52.1761L26.6875 51.5346L29.2292 50.4654L31.3472 48.9685L32.4062 47.8993L33.6771 46.1886L34.9479 42.9811L35.1597 41.2704V37.6352L34.5243 35.0691L33.0417 32.2893L31.559 30.5786L28.8056 28.654L27.5347 27.7987L26.6875 26.7295V26.3018Z" fill="#262626"/>
<path d="M14.6146 28.2264H15.4618L15.6736 57.3081L16.309 61.1572L17.3681 63.7232L18.6389 65.4339L20.757 66.7169L24.1458 67.3585V68H5.93056V67.3585L8.26043 66.9308L10.8021 65.8616L12.4965 63.9371L13.7674 61.1572L14.4028 57.9497L14.6146 28.2264Z" fill="#262626"/>
</svg>
