<svg width="18" height="21" viewBox="0 0 18 21" fill="none" xmlns="http://www.w3.org/2000/svg">
<path d="M16.5 2.46924H14.25V1.71924C14.25 1.52033 14.171 1.32956 14.0303 1.18891C13.8897 1.04826 13.6989 0.969238 13.5 0.969238C13.3011 0.969238 13.1103 1.04826 12.9697 1.18891C12.829 1.32956 12.75 1.52033 12.75 1.71924V2.46924H5.25V1.71924C5.25 1.52033 5.17098 1.32956 5.03033 1.18891C4.88968 1.04826 4.69891 0.969238 4.5 0.969238C4.30109 0.969238 4.11032 1.04826 3.96967 1.18891C3.82902 1.32956 3.75 1.52033 3.75 1.71924V2.46924H1.5C1.10218 2.46924 0.720644 2.62727 0.43934 2.90858C0.158035 3.18988 0 3.57141 0 3.96924V18.9692C0 19.3671 0.158035 19.7486 0.43934 20.0299C0.720644 20.3112 1.10218 20.4692 1.5 20.4692H16.5C16.8978 20.4692 17.2794 20.3112 17.5607 20.0299C17.842 19.7486 18 19.3671 18 18.9692V3.96924C18 3.57141 17.842 3.18988 17.5607 2.90858C17.2794 2.62727 16.8978 2.46924 16.5 2.46924ZM12.9056 11.9999L8.40563 16.4999C8.33597 16.5696 8.25325 16.6249 8.1622 16.6627C8.07116 16.7004 7.97356 16.7198 7.875 16.7198C7.77644 16.7198 7.67884 16.7004 7.58779 16.6627C7.49675 16.6249 7.41403 16.5696 7.34437 16.4999L5.09437 14.2499C4.95364 14.1091 4.87458 13.9183 4.87458 13.7192C4.87458 13.5202 4.95364 13.3293 5.09437 13.1886C5.23511 13.0479 5.42598 12.9688 5.625 12.9688C5.82402 12.9688 6.01489 13.0479 6.15563 13.1886L7.875 14.9089L11.8444 10.9386C11.9141 10.8689 11.9968 10.8137 12.0878 10.7759C12.1789 10.7382 12.2765 10.7188 12.375 10.7188C12.4735 10.7188 12.5711 10.7382 12.6622 10.7759C12.7532 10.8137 12.8359 10.8689 12.9056 10.9386C12.9753 11.0083 13.0306 11.091 13.0683 11.1821C13.106 11.2731 13.1254 11.3707 13.1254 11.4692C13.1254 11.5678 13.106 11.6654 13.0683 11.7564C13.0306 11.8475 12.9753 11.9302 12.9056 11.9999ZM1.5 6.96924V3.96924H3.75V4.71924C3.75 4.91815 3.82902 5.10892 3.96967 5.24957C4.11032 5.39022 4.30109 5.46924 4.5 5.46924C4.69891 5.46924 4.88968 5.39022 5.03033 5.24957C5.17098 5.10892 5.25 4.91815 5.25 4.71924V3.96924H12.75V4.71924C12.75 4.91815 12.829 5.10892 12.9697 5.24957C13.1103 5.39022 13.3011 5.46924 13.5 5.46924C13.6989 5.46924 13.8897 5.39022 14.0303 5.24957C14.171 5.10892 14.25 4.91815 14.25 4.71924V3.96924H16.5V6.96924H1.5Z" fill="#C1A50C"/>
</svg>
